<?xml version="1.0" encoding="UTF-8" standalone="no"?>
<!DOCTYPE svg PUBLIC "-//W3C//DTD SVG 1.1//EN"
 "http://www.w3.org/Graphics/SVG/1.1/DTD/svg11.dtd">
<!-- Generated by graphviz version 2.38.0 (20140413.2041)
 -->
<!-- Title: models_diagram Pages: 1 -->
<svg width="701pt" height="432pt"
 viewBox="0.00 0.00 701.00 432.00" xmlns="http://www.w3.org/2000/svg" xmlns:xlink="http://www.w3.org/1999/xlink">
<g id="graph0" class="graph" transform="scale(1 1) rotate(0) translate(4 428)">
<title>models_diagram</title>
<polygon fill="none" stroke="none" points="-4,4 -4,-428 697,-428 697,4 -4,4"/>
<!-- _diagram_info -->
<g id="node1" class="node"><title>_diagram_info</title>
<text text-anchor="start" x="8" y="-409.6" font-family="Times,serif" font-size="13.00">Models diagram</text>
<text text-anchor="start" x="8" y="-395.6" font-family="Times,serif" font-size="13.00">Date: Jul 19 2017 &#45; 20:34</text>
<text text-anchor="start" x="8" y="-381.6" font-family="Times,serif" font-size="13.00">Migration version: 20170719234815</text>
<text text-anchor="start" x="8" y="-367.6" font-family="Times,serif" font-size="13.00">Generated by RailRoady 1.5.3</text>
<text text-anchor="start" x="8" y="-353.6" font-family="Times,serif" font-size="13.00">http://railroady.prestonlee.com</text>
</g>
<!-- ApplicationRecord -->
<g id="node2" class="node"><title>ApplicationRecord</title>
<ellipse fill="none" stroke="black" cx="309" cy="-385" rx="77.1866" ry="18"/>
<text text-anchor="middle" x="309" y="-381.3" font-family="Times,serif" font-size="14.00">ApplicationRecord</text>
</g>
<!-- Item -->
<g id="node3" class="node"><title>Item</title>
<path fill="none" stroke="black" d="M199,-0.5C199,-0.5 419,-0.5 419,-0.5 425,-0.5 431,-6.5 431,-12.5 431,-12.5 431,-139.5 431,-139.5 431,-145.5 425,-151.5 419,-151.5 419,-151.5 199,-151.5 199,-151.5 193,-151.5 187,-145.5 187,-139.5 187,-139.5 187,-12.5 187,-12.5 187,-6.5 193,-0.5 199,-0.5"/>
<text text-anchor="middle" x="309" y="-136.3" font-family="Times,serif" font-size="14.00">Item</text>
<polyline fill="none" stroke="black" points="187,-128.5 431,-128.5 "/>
<text text-anchor="start" x="195" y="-113.3" font-family="Times,serif" font-size="14.00">id :bigint</text>
<text text-anchor="start" x="195" y="-98.3" font-family="Times,serif" font-size="14.00">code :integer</text>
<text text-anchor="start" x="195" y="-83.3" font-family="Times,serif" font-size="14.00">size :integer</text>
<text text-anchor="start" x="195" y="-68.3" font-family="Times,serif" font-size="14.00">description :text</text>
<text text-anchor="start" x="195" y="-53.3" font-family="Times,serif" font-size="14.00">created_at :timestamp without time zone</text>
<text text-anchor="start" x="195" y="-38.3" font-family="Times,serif" font-size="14.00">updated_at :timestamp without time zone</text>
<text text-anchor="start" x="195" y="-23.3" font-family="Times,serif" font-size="14.00">category_id :bigint</text>
<text text-anchor="start" x="195" y="-8.3" font-family="Times,serif" font-size="14.00">user_id :bigint</text>
</g>
<!-- ApplicationRecord&#45;&gt;Item -->
<g id="edge1" class="edge"><title>ApplicationRecord&#45;&gt;Item</title>
<path fill="none" stroke="black" d="M273.621,-368.932C238.598,-353.206 188.698,-328.33 178,-310 150.669,-263.17 155.203,-237.197 178,-188 184.079,-174.882 192.556,-162.751 202.305,-151.703"/>
</g>
<!-- Category -->
<g id="node4" class="node"><title>Category</title>
<path fill="none" stroke="black" d="M199,-196C199,-196 419,-196 419,-196 425,-196 431,-202 431,-208 431,-208 431,-290 431,-290 431,-296 425,-302 419,-302 419,-302 199,-302 199,-302 193,-302 187,-296 187,-290 187,-290 187,-208 187,-208 187,-202 193,-196 199,-196"/>
<text text-anchor="middle" x="309" y="-286.8" font-family="Times,serif" font-size="14.00">Category</text>
<polyline fill="none" stroke="black" points="187,-279 431,-279 "/>
<text text-anchor="start" x="195" y="-263.8" font-family="Times,serif" font-size="14.00">id :bigint</text>
<text text-anchor="start" x="195" y="-248.8" font-family="Times,serif" font-size="14.00">name :character varying</text>
<text text-anchor="start" x="195" y="-233.8" font-family="Times,serif" font-size="14.00">created_at :timestamp without time zone</text>
<text text-anchor="start" x="195" y="-218.8" font-family="Times,serif" font-size="14.00">updated_at :timestamp without time zone</text>
<text text-anchor="start" x="195" y="-203.8" font-family="Times,serif" font-size="14.00">item_id :bigint</text>
</g>
<!-- ApplicationRecord&#45;&gt;Category -->
<g id="edge3" class="edge"><title>ApplicationRecord&#45;&gt;Category</title>
<path fill="none" stroke="black" d="M309,-366.756C309,-350.428 309,-325.067 309,-302.147"/>
</g>
<!-- User -->
<g id="node5" class="node"><title>User</title>
<path fill="none" stroke="black" d="M461,-188.5C461,-188.5 681,-188.5 681,-188.5 687,-188.5 693,-194.5 693,-200.5 693,-200.5 693,-297.5 693,-297.5 693,-303.5 687,-309.5 681,-309.5 681,-309.5 461,-309.5 461,-309.5 455,-309.5 449,-303.5 449,-297.5 449,-297.5 449,-200.5 449,-200.5 449,-194.5 455,-188.5 461,-188.5"/>
<text text-anchor="middle" x="571" y="-294.3" font-family="Times,serif" font-size="14.00">User</text>
<polyline fill="none" stroke="black" points="449,-286.5 693,-286.5 "/>
<text text-anchor="start" x="457" y="-271.3" font-family="Times,serif" font-size="14.00">id :bigint</text>
<text text-anchor="start" x="457" y="-256.3" font-family="Times,serif" font-size="14.00">name :character varying</text>
<text text-anchor="start" x="457" y="-241.3" font-family="Times,serif" font-size="14.00">email :character varying</text>
<text text-anchor="start" x="457" y="-226.3" font-family="Times,serif" font-size="14.00">item_id :bigint</text>
<text text-anchor="start" x="457" y="-211.3" font-family="Times,serif" font-size="14.00">created_at :timestamp without time zone</text>
<text text-anchor="start" x="457" y="-196.3" font-family="Times,serif" font-size="14.00">updated_at :timestamp without time zone</text>
</g>
<!-- ApplicationRecord&#45;&gt;User -->
<g id="edge5" class="edge"><title>ApplicationRecord&#45;&gt;User</title>
<path fill="none" stroke="black" d="M339.567,-368.366C368.049,-353.799 412.361,-331.136 454.618,-309.523"/>
</g>
<!-- Category&#45;&gt;Item -->
<g id="edge2" class="edge"><title>Category&#45;&gt;Item</title>
<path fill="none" stroke="#da8dd3" d="M309,-187.447C309,-179.105 309,-170.416 309,-161.737"/>
<ellipse fill="none" stroke="#da8dd3" cx="309" cy="-191.765" rx="4" ry="4"/>
<polygon fill="#da8dd3" stroke="#da8dd3" points="309,-161.576 313.5,-151.576 309,-156.576 309,-151.576 309,-151.576 309,-151.576 309,-156.576 304.5,-151.576 309,-161.576 309,-161.576"/>
</g>
<!-- User&#45;&gt;Item -->
<g id="edge4" class="edge"><title>User&#45;&gt;Item</title>
<path fill="none" stroke="#5d1cda" d="M472.871,-183.954C459.523,-175.242 445.688,-166.212 431.971,-157.259"/>
<ellipse fill="none" stroke="#5d1cda" cx="476.383" cy="-186.246" rx="4.00002" ry="4.00002"/>
<polygon fill="#5d1cda" stroke="#5d1cda" points="431.824,-157.164 425.91,-147.93 427.637,-154.431 423.45,-151.698 423.45,-151.698 423.45,-151.698 427.637,-154.431 420.991,-155.467 431.824,-157.164 431.824,-157.164"/>
</g>
</g>
</svg>
