<?xml version="1.0" encoding="UTF-8" standalone="no"?>
<!DOCTYPE svg PUBLIC "-//W3C//DTD SVG 1.1//EN"
 "http://www.w3.org/Graphics/SVG/1.1/DTD/svg11.dtd">
<!-- Generated by graphviz version 2.38.0 (20140413.2041)
 -->
<!-- Title: models_diagram Pages: 1 -->
<svg width="432pt" height="230pt"
 viewBox="0.00 0.00 432.30 230.00" xmlns="http://www.w3.org/2000/svg" xmlns:xlink="http://www.w3.org/1999/xlink">
<g id="graph0" class="graph" transform="scale(1 1) rotate(0) translate(4 226)">
<title>models_diagram</title>
<polygon fill="none" stroke="none" points="-4,4 -4,-226 428.298,-226 428.298,4 -4,4"/>
<!-- _diagram_info -->
<g id="node1" class="node"><title>_diagram_info</title>
<text text-anchor="start" x="8" y="-207.6" font-family="Times,serif" font-size="13.00">Models diagram</text>
<text text-anchor="start" x="8" y="-193.6" font-family="Times,serif" font-size="13.00">Date: Jul 19 2017 &#45; 20:34</text>
<text text-anchor="start" x="8" y="-179.6" font-family="Times,serif" font-size="13.00">Migration version: 20170719234815</text>
<text text-anchor="start" x="8" y="-165.6" font-family="Times,serif" font-size="13.00">Generated by RailRoady 1.5.3</text>
<text text-anchor="start" x="8" y="-151.6" font-family="Times,serif" font-size="13.00">http://railroady.prestonlee.com</text>
</g>
<!-- ApplicationRecord -->
<g id="node2" class="node"><title>ApplicationRecord</title>
<ellipse fill="none" stroke="black" cx="309" cy="-183" rx="77.1866" ry="18"/>
<text text-anchor="middle" x="309" y="-179.3" font-family="Times,serif" font-size="14.00">ApplicationRecord</text>
</g>
<!-- Item -->
<g id="node3" class="node"><title>Item</title>
<ellipse fill="none" stroke="black" cx="309" cy="-18" rx="27.0966" ry="18"/>
<text text-anchor="middle" x="309" y="-14.3" font-family="Times,serif" font-size="14.00">Item</text>
</g>
<!-- ApplicationRecord&#45;&gt;Item -->
<g id="edge1" class="edge"><title>ApplicationRecord&#45;&gt;Item</title>
<path fill="none" stroke="black" d="M292.531,-165.147C280.072,-151.141 263.959,-130.008 257,-108 252.176,-92.7446 250.948,-86.8111 257,-72 263.827,-55.2943 278.738,-41.0096 290.851,-31.4942"/>
</g>
<!-- Category -->
<g id="node4" class="node"><title>Category</title>
<ellipse fill="none" stroke="black" cx="309" cy="-90" rx="42.7926" ry="18"/>
<text text-anchor="middle" x="309" y="-86.3" font-family="Times,serif" font-size="14.00">Category</text>
</g>
<!-- ApplicationRecord&#45;&gt;Category -->
<g id="edge3" class="edge"><title>ApplicationRecord&#45;&gt;Category</title>
<path fill="none" stroke="black" d="M309,-164.884C309,-148.614 309,-124.284 309,-108.04"/>
</g>
<!-- User -->
<g id="node5" class="node"><title>User</title>
<ellipse fill="none" stroke="black" cx="397" cy="-90" rx="27.0966" ry="18"/>
<text text-anchor="middle" x="397" y="-86.3" font-family="Times,serif" font-size="14.00">User</text>
</g>
<!-- ApplicationRecord&#45;&gt;User -->
<g id="edge5" class="edge"><title>ApplicationRecord&#45;&gt;User</title>
<path fill="none" stroke="black" d="M325.141,-165.309C341.713,-148.172 367.244,-121.771 382.992,-105.485"/>
</g>
<!-- Category&#45;&gt;Item -->
<g id="edge2" class="edge"><title>Category&#45;&gt;Item</title>
<path fill="none" stroke="#c05494" d="M309,-63.6398C309,-58.0629 309,-52.1319 309,-46.4761"/>
<ellipse fill="none" stroke="#c05494" cx="309" cy="-67.6966" rx="4" ry="4"/>
<polygon fill="#c05494" stroke="#c05494" points="309,-46.1043 313.5,-36.1043 309,-41.1043 309,-36.1043 309,-36.1043 309,-36.1043 309,-41.1043 304.5,-36.1044 309,-46.1043 309,-46.1043"/>
</g>
<!-- User&#45;&gt;Item -->
<g id="edge4" class="edge"><title>User&#45;&gt;Item</title>
<path fill="none" stroke="#48ef93" d="M373.468,-70.2812C361.29,-60.5942 346.42,-48.7661 334.032,-38.9117"/>
<ellipse fill="none" stroke="#48ef93" cx="376.902" cy="-73.0132" rx="4.00002" ry="4.00002"/>
<polygon fill="#48ef93" stroke="#48ef93" points="333.741,-38.6805 328.717,-28.9336 329.828,-35.5679 325.915,-32.4553 325.915,-32.4553 325.915,-32.4553 329.828,-35.5679 323.114,-35.977 333.741,-38.6805 333.741,-38.6805"/>
</g>
</g>
</svg>
